# xmcd
#
# Track frame offsets:
#	150
#	18398
#	31250
#	52395
#	69138
#	86858
#	104723
#	121168
#	135491
#	150851
#	164246
#	179839
#	194489
#	211332
#	228506
#	246926
#	261761
#	278813
#
# Disc length: 3988 seconds
#
# Revision: 0
# Processed by: cddbd v1.5.2PL0 Copyright (c) Steve Scherf et al.
# Submitted via: audiograbber 1.83.01
#
DISCID=0b0f9212
DTITLE=Various Artist - Promo Only Country Radio March 2006
DYEAR=2006
DGENRE=Country
TTITLE0=Terri Clark - Damn Right
TTITLE1=Joe Nichols - Size Matters (Someday)
TTITLE2=Garth Brooks and Trisha Yearwood - Love Will Always Win
TTITLE3=Trent Willman - On Again Tonight
TTITLE4=Phil Vasser - Last Day of My Life, The
TTITLE5=John Corbett - Good to Go
TTITLE6=Steve Holy - Brand New Girlfriend
TTITLE7=Cowboy Crush - Hillbilly Nation
TTITLE8=Shooter Jennings - Aviators
TTITLE9=Martina McBride f/Dolly Parton - I Still Miss Someone
TTITLE10=Big and Rich - Never Mind Me
TTITLE11=Reba McEntire - Love Needs a Holiday
TTITLE12=Dierks Bentley - Settle For a Slowdown
TTITLE13=Mark McGuinn - One Man's Crazy
TTITLE14=Little Big Town - Bring It on Home
TTITLE15=Cory Morrow - Good Intentions
TTITLE16=Blaine Larsen - I Don't Know What She Said
TTITLE17=Faith Hill - Like We Never Loved at All (L)
EXTD=
EXTT0=
EXTT1=
EXTT2=
EXTT3=
EXTT4=
EXTT5=
EXTT6=
EXTT7=
EXTT8=
EXTT9=
EXTT10=
EXTT11=
EXTT12=
EXTT13=
EXTT14=
EXTT15=
EXTT16=
EXTT17=
PLAYORDER=
